<mxfile host="app.diagrams.net" modified="2021-02-02T05:58:51.096Z" agent="5.0 (Macintosh; Intel Mac OS X 10_15_6) AppleWebKit/605.1.15 (KHTML, like Gecko) Version/14.0 Safari/605.1.15" etag="GFqB8dZ7DOvENvQB9_3g" version="14.2.9" type="github">
  <diagram id="GPcPKYUphOVzy0ds8dnr" name="Page-1">
    <mxGraphModel dx="746" dy="462" grid="1" gridSize="10" guides="1" tooltips="1" connect="1" arrows="1" fold="1" page="1" pageScale="1" pageWidth="850" pageHeight="1100" math="1" shadow="0">
      <root>
        <mxCell id="0" />
        <mxCell id="1" parent="0" />
        <mxCell id="XiKwa4SP2fp3I_ocTYC7-1" value="SNP&lt;sub&gt;1&lt;/sub&gt;" style="ellipse;whiteSpace=wrap;html=1;aspect=fixed;" vertex="1" parent="1">
          <mxGeometry x="160" y="80" width="40" height="40" as="geometry" />
        </mxCell>
        <mxCell id="XiKwa4SP2fp3I_ocTYC7-2" value="SNP&lt;font size=&quot;1&quot;&gt;2&lt;/font&gt;" style="ellipse;whiteSpace=wrap;html=1;aspect=fixed;" vertex="1" parent="1">
          <mxGeometry x="240" y="80" width="40" height="40" as="geometry" />
        </mxCell>
        <mxCell id="XiKwa4SP2fp3I_ocTYC7-5" value="SNP&lt;font size=&quot;1&quot;&gt;n&lt;/font&gt;" style="ellipse;whiteSpace=wrap;html=1;aspect=fixed;" vertex="1" parent="1">
          <mxGeometry x="340" y="80" width="40" height="40" as="geometry" />
        </mxCell>
        <mxCell id="XiKwa4SP2fp3I_ocTYC7-6" value="&lt;b&gt;&lt;font style=&quot;font-size: 20px&quot;&gt;. . .&lt;/font&gt;&lt;/b&gt;" style="text;html=1;strokeColor=none;fillColor=none;align=center;verticalAlign=middle;whiteSpace=wrap;rounded=0;" vertex="1" parent="1">
          <mxGeometry x="290" y="85" width="40" height="20" as="geometry" />
        </mxCell>
        <mxCell id="XiKwa4SP2fp3I_ocTYC7-7" value="" style="endArrow=classic;html=1;exitX=0.5;exitY=1;exitDx=0;exitDy=0;" edge="1" parent="1" source="XiKwa4SP2fp3I_ocTYC7-1">
          <mxGeometry width="50" height="50" relative="1" as="geometry">
            <mxPoint x="170" y="170" as="sourcePoint" />
            <mxPoint x="140" y="160" as="targetPoint" />
          </mxGeometry>
        </mxCell>
        <mxCell id="XiKwa4SP2fp3I_ocTYC7-10" value="`h_1^{(1)}`&amp;nbsp;" style="ellipse;whiteSpace=wrap;html=1;aspect=fixed;" vertex="1" parent="1">
          <mxGeometry x="120" y="160" width="40" height="40" as="geometry" />
        </mxCell>
        <mxCell id="XiKwa4SP2fp3I_ocTYC7-12" value="`h_2^{(1)}`&amp;nbsp;" style="ellipse;whiteSpace=wrap;html=1;aspect=fixed;" vertex="1" parent="1">
          <mxGeometry x="200" y="160" width="40" height="40" as="geometry" />
        </mxCell>
        <mxCell id="XiKwa4SP2fp3I_ocTYC7-13" value="`h_3^{(1)}`&amp;nbsp;" style="ellipse;whiteSpace=wrap;html=1;aspect=fixed;" vertex="1" parent="1">
          <mxGeometry x="280" y="160" width="40" height="40" as="geometry" />
        </mxCell>
        <mxCell id="XiKwa4SP2fp3I_ocTYC7-16" value="`h_{n_1}^{(1)}`&amp;nbsp;" style="ellipse;whiteSpace=wrap;html=1;aspect=fixed;" vertex="1" parent="1">
          <mxGeometry x="380" y="160" width="40" height="40" as="geometry" />
        </mxCell>
        <mxCell id="XiKwa4SP2fp3I_ocTYC7-17" value="&lt;b&gt;&lt;font style=&quot;font-size: 20px&quot;&gt;. . .&lt;/font&gt;&lt;/b&gt;" style="text;html=1;strokeColor=none;fillColor=none;align=center;verticalAlign=middle;whiteSpace=wrap;rounded=0;" vertex="1" parent="1">
          <mxGeometry x="333" y="165" width="40" height="20" as="geometry" />
        </mxCell>
        <mxCell id="XiKwa4SP2fp3I_ocTYC7-18" value="" style="endArrow=classic;html=1;exitX=0.5;exitY=1;exitDx=0;exitDy=0;" edge="1" parent="1">
          <mxGeometry width="50" height="50" relative="1" as="geometry">
            <mxPoint x="260" y="120" as="sourcePoint" />
            <mxPoint x="220" y="160" as="targetPoint" />
          </mxGeometry>
        </mxCell>
        <mxCell id="XiKwa4SP2fp3I_ocTYC7-23" value="" style="endArrow=classic;html=1;exitX=0;exitY=1;exitDx=0;exitDy=0;" edge="1" parent="1">
          <mxGeometry width="50" height="50" relative="1" as="geometry">
            <mxPoint x="345.85786437626894" y="117.14213562373106" as="sourcePoint" />
            <mxPoint x="309" y="161" as="targetPoint" />
          </mxGeometry>
        </mxCell>
        <mxCell id="XiKwa4SP2fp3I_ocTYC7-24" value="" style="endArrow=classic;html=1;exitX=1;exitY=1;exitDx=0;exitDy=0;entryX=0.5;entryY=0;entryDx=0;entryDy=0;" edge="1" parent="1" source="XiKwa4SP2fp3I_ocTYC7-5" target="XiKwa4SP2fp3I_ocTYC7-16">
          <mxGeometry width="50" height="50" relative="1" as="geometry">
            <mxPoint x="280" y="270" as="sourcePoint" />
            <mxPoint x="330" y="220" as="targetPoint" />
          </mxGeometry>
        </mxCell>
      </root>
    </mxGraphModel>
  </diagram>
</mxfile>
